<svg xmlns="http://www.w3.org/2000/svg" width="1200" height="675" viewBox="0 0 1200 675">
  <defs>
    <linearGradient id="bg" x1="0%" y1="0%" x2="100%" y2="100%">
      <stop offset="0%" style="stop-color:#18181B"/>
      <stop offset="50%" style="stop-color:#27272A"/>
      <stop offset="100%" style="stop-color:#3F3F46"/>
    </linearGradient>
    <linearGradient id="iconGrad" x1="0%" y1="0%" x2="100%" y2="100%">
      <stop offset="0%" style="stop-color:#A855F7"/>
      <stop offset="100%" style="stop-color:#7C3AED"/>
    </linearGradient>
    <filter id="shadow1" x="-20%" y="-20%" width="140%" height="140%">
      <feDropShadow dx="0" dy="8" stdDeviation="16" flood-color="#000" flood-opacity="0.5"/>
    </filter>
    <filter id="shadow2" x="-20%" y="-20%" width="140%" height="140%">
      <feDropShadow dx="0" dy="4" stdDeviation="8" flood-color="#000" flood-opacity="0.3"/>
    </filter>
  </defs>
  <rect width="1200" height="675" fill="url(#bg)"/>
  <circle cx="150" cy="120" r="120" fill="#A855F7" opacity="0.08"/>
  <circle cx="1050" cy="550" r="150" fill="#7C3AED" opacity="0.06"/>

  <!-- 应用图标 -->
  <g transform="translate(80, 200)">
    <rect width="140" height="140" rx="28" fill="url(#iconGrad)" filter="url(#shadow1)"/>
    <!-- 漫画分镜图标 -->
    <rect x="28" y="30" width="36" height="36" rx="4" fill="#fff" opacity="0.3"/>
    <rect x="70" y="30" width="36" height="36" rx="4" fill="#fff" opacity="0.2"/>
    <rect x="28" y="72" width="36" height="36" rx="4" fill="#fff" opacity="0.2"/>
    <rect x="70" y="72" width="36" height="36" rx="4" fill="#fff" opacity="0.3"/>
    <circle cx="46" cy="48" r="6" fill="#fff" opacity="0.6"/>
    <circle cx="88" cy="90" r="6" fill="#fff" opacity="0.6"/>
    <text x="70" y="135" text-anchor="middle" fill="#F3E8FF" font-family="system-ui, sans-serif" font-size="11" font-weight="600">AI漫剧</text>
  </g>

  <!-- 漫剧分镜界面 -->
  <g transform="translate(280, 50)" filter="url(#shadow2)">
    <rect width="640" height="440" rx="8" fill="#18181B" stroke="#3F3F46" stroke-width="1"/>
    <!-- 标题栏 -->
    <rect width="640" height="32" rx="8" fill="#27272A"/>
    <rect y="24" width="640" height="8" fill="#27272A"/>
    <text x="16" y="22" fill="#A855F7" font-family="system-ui, sans-serif" font-size="10" font-weight="600">AI漫剧</text>
    <text x="100" y="22" fill="#A1A1AA" font-family="system-ui, sans-serif" font-size="9">分镜</text>
    <text x="140" y="22" fill="#A1A1AA" font-family="system-ui, sans-serif" font-size="9">角色</text>
    <text x="180" y="22" fill="#A1A1AA" font-family="system-ui, sans-serif" font-size="9">时间线</text>
    <!-- 分镜网格 3x2 -->
    <rect x="16" y="44" width="192" height="132" rx="6" fill="#09090B"/>
    <rect x="20" y="48" width="184" height="90" rx="4" fill="#A855F7" opacity="0.15"/>
    <circle cx="112" cy="90" r="16" fill="#A855F7" opacity="0.3"/>
    <text x="112" y="94" text-anchor="middle" fill="#A855F7" font-family="system-ui, sans-serif" font-size="14">01</text>
    <rect x="20" y="142" width="184" height="26" rx="4" fill="#27272A"/>
    <text x="28" y="158" fill="#A1A1AA" font-family="system-ui, sans-serif" font-size="6">开场 - 城市天际线</text>

    <rect x="216" y="44" width="192" height="132" rx="6" fill="#09090B"/>
    <rect x="220" y="48" width="184" height="90" rx="4" fill="#7C3AED" opacity="0.15"/>
    <circle cx="312" cy="90" r="16" fill="#7C3AED" opacity="0.3"/>
    <text x="312" y="94" text-anchor="middle" fill="#7C3AED" font-family="system-ui, sans-serif" font-size="14">02</text>
    <rect x="220" y="142" width="184" height="26" rx="4" fill="#27272A"/>
    <text x="228" y="158" fill="#A1A1AA" font-family="system-ui, sans-serif" font-size="6">角色登场 - 主角介绍</text>

    <rect x="416" y="44" width="208" height="132" rx="6" fill="#09090B"/>
    <rect x="420" y="48" width="200" height="90" rx="4" fill="#EC4899" opacity="0.15"/>
    <circle cx="520" cy="90" r="16" fill="#EC4899" opacity="0.3"/>
    <text x="520" y="94" text-anchor="middle" fill="#EC4899" font-family="system-ui, sans-serif" font-size="14">03</text>
    <rect x="420" y="142" width="200" height="26" rx="4" fill="#27272A"/>
    <text x="428" y="158" fill="#A1A1AA" font-family="system-ui, sans-serif" font-size="6">冲突 - 对峙场景</text>

    <rect x="16" y="184" width="192" height="132" rx="6" fill="#09090B"/>
    <rect x="20" y="188" width="184" height="90" rx="4" fill="#F59E0B" opacity="0.15"/>
    <circle cx="112" cy="230" r="16" fill="#F59E0B" opacity="0.3"/>
    <text x="112" y="234" text-anchor="middle" fill="#F59E0B" font-family="system-ui, sans-serif" font-size="14">04</text>
    <rect x="20" y="282" width="184" height="26" rx="4" fill="#27272A"/>
    <text x="28" y="298" fill="#A1A1AA" font-family="system-ui, sans-serif" font-size="6">高潮 - 战斗场面</text>

    <rect x="216" y="184" width="192" height="132" rx="6" fill="#09090B"/>
    <rect x="220" y="188" width="184" height="90" rx="4" fill="#06B6D4" opacity="0.15"/>
    <circle cx="312" cy="230" r="16" fill="#06B6D4" opacity="0.3"/>
    <text x="312" y="234" text-anchor="middle" fill="#06B6D4" font-family="system-ui, sans-serif" font-size="14">05</text>
    <rect x="220" y="282" width="184" height="26" rx="4" fill="#27272A"/>
    <text x="228" y="298" fill="#A1A1AA" font-family="system-ui, sans-serif" font-size="6">转折 - 真相揭示</text>

    <rect x="416" y="184" width="208" height="132" rx="6" fill="#09090B"/>
    <rect x="420" y="188" width="200" height="90" rx="4" fill="#10B981" opacity="0.15"/>
    <circle cx="520" cy="230" r="16" fill="#10B981" opacity="0.3"/>
    <text x="520" y="234" text-anchor="middle" fill="#10B981" font-family="system-ui, sans-serif" font-size="14">06</text>
    <rect x="420" y="282" width="200" height="26" rx="4" fill="#27272A"/>
    <text x="428" y="298" fill="#A1A1AA" font-family="system-ui, sans-serif" font-size="6">结局 - 故事收束</text>

    <!-- 制作时间线 -->
    <rect x="16" y="328" width="608" height="48" rx="6" fill="#27272A"/>
    <text x="28" y="348" fill="#FAFAFA" font-family="system-ui, sans-serif" font-size="8" font-weight="600">制作时间线</text>
    <rect x="120" y="340" width="480" height="24" rx="4" fill="#09090B"/>
    <rect x="120" y="340" width="80" height="24" rx="4" fill="#A855F7" opacity="0.5"/>
    <rect x="208" y="340" width="120" height="24" rx="4" fill="#7C3AED" opacity="0.5"/>
    <rect x="336" y="340" width="160" height="24" rx="4" fill="#EC4899" opacity="0.5"/>
    <rect x="504" y="340" width="96" height="24" rx="4" fill="#10B981" opacity="0.5"/>
    <text x="148" y="356" fill="#fff" font-family="system-ui, sans-serif" font-size="6">剧本</text>
    <text x="256" y="356" fill="#fff" font-family="system-ui, sans-serif" font-size="6">角色设计</text>
    <text x="392" y="356" fill="#fff" font-family="system-ui, sans-serif" font-size="6">分镜生成</text>
    <text x="536" y="356" fill="#fff" font-family="system-ui, sans-serif" font-size="6">后期</text>

    <!-- 项目数据卡片 -->
    <rect x="16" y="388" width="608" height="40" rx="6" fill="#27272A"/>
    <rect x="28" y="394" width="140" height="28" rx="4" fill="#09090B"/>
    <text x="36" y="412" fill="#A855F7" font-family="system-ui, sans-serif" font-size="10" font-weight="700">6</text>
    <text x="52" y="412" fill="#A1A1AA" font-family="system-ui, sans-serif" font-size="7">分镜场景</text>
    <rect x="176" y="394" width="140" height="28" rx="4" fill="#09090B"/>
    <text x="184" y="412" fill="#EC4899" font-family="system-ui, sans-serif" font-size="10" font-weight="700">3-5</text>
    <text x="212" y="412" fill="#A1A1AA" font-family="system-ui, sans-serif" font-size="7">角色数量</text>
    <rect x="324" y="394" width="140" height="28" rx="4" fill="#09090B"/>
    <text x="332" y="412" fill="#10B981" font-family="system-ui, sans-serif" font-size="10" font-weight="700">1周</text>
    <text x="358" y="412" fill="#A1A1AA" font-family="system-ui, sans-serif" font-size="7">制作周期</text>
    <rect x="472" y="394" width="140" height="28" rx="4" fill="#09090B"/>
    <text x="480" y="412" fill="#F59E0B" font-family="system-ui, sans-serif" font-size="10" font-weight="700">10x</text>
    <text x="508" y="412" fill="#A1A1AA" font-family="system-ui, sans-serif" font-size="7">效率提升</text>
  </g>

  <!-- 右侧卡片 - 漫剧数据 -->
  <g transform="translate(960, 100)" filter="url(#shadow2)">
    <rect width="200" height="180" rx="12" fill="#27272A" stroke="#3F3F46" stroke-width="1"/>
    <text x="16" y="32" fill="#FAFAFA" font-family="system-ui, sans-serif" font-size="10" font-weight="600">漫剧数据</text>
    <rect x="16" y="44" width="168" height="50" rx="6" fill="#09090B" stroke="#3F3F46" stroke-width="1"/>
    <text x="24" y="62" fill="#A855F7" font-family="system-ui, sans-serif" font-size="7">叙事完整度</text>
    <text x="24" y="78" fill="#10B981" font-family="system-ui, sans-serif" font-size="16" font-weight="700">92%</text>
    <rect x="16" y="100" width="80" height="24" rx="6" fill="url(#iconGrad)"/>
    <text x="56" y="116" text-anchor="middle" fill="#fff" font-family="system-ui, sans-serif" font-size="8" font-weight="600">生成</text>
    <rect x="104" y="100" width="80" height="24" rx="6" fill="#3F3F46"/>
    <text x="144" y="116" text-anchor="middle" fill="#A1A1AA" font-family="system-ui, sans-serif" font-size="8">导出</text>
    <rect x="16" y="132" width="168" height="36" rx="6" fill="#18181B"/>
    <text x="24" y="148" fill="#7C3AED" font-family="system-ui, sans-serif" font-size="7" font-weight="600">AI漫剧工作流</text>
    <text x="24" y="160" fill="#A1A1AA" font-family="system-ui, sans-serif" font-size="6">从剧本到成片 1周</text>
  </g>

  <text x="600" y="580" text-anchor="middle" fill="#FAFAFA" font-family="system-ui, sans-serif" font-size="32" font-weight="700">AI漫剧</text>
  <text x="600" y="610" text-anchor="middle" fill="#A1A1AA" font-family="system-ui, sans-serif" font-size="14">AI叙事动画的完整制作工作流与分镜设计</text>
</svg>