<svg xmlns="http://www.w3.org/2000/svg" width="1200" height="675" viewBox="0 0 1200 675">
  <defs>
    <linearGradient id="bg" x1="0%" y1="0%" x2="100%" y2="100%">
      <stop offset="0%" style="stop-color:#1E1B4B"/>
      <stop offset="50%" style="stop-color:#1E3A5F"/>
      <stop offset="100%" style="stop-color:#1E40AF"/>
    </linearGradient>
  </defs>
  <rect width="1200" height="675" fill="url(#bg)"/>
  <circle cx="200" cy="150" r="80" fill="#60A5FA" opacity="0.12"/>
  <circle cx="1000" cy="500" r="100" fill="#93C5FD" opacity="0.08"/>
  <rect x="80" y="180" width="320" height="280" rx="12" fill="#1E1B4B" stroke="#1E3A5F" stroke-width="1"/>
  <rect x="100" y="200" width="100" height="8" rx="4" fill="#60A5FA" opacity="0.6"/>
  <rect x="100" y="220" width="200" height="6" rx="3" fill="#334155"/>
  <rect x="100" y="250" width="80" height="90" rx="6" fill="#1E3A5F"/>
  <rect x="200" y="250" width="80" height="90" rx="6" fill="#1E3A5F"/>
  <rect x="100" y="360" width="280" height="8" rx="4" fill="#1E3A5F"/>
  <rect x="100" y="385" width="180" height="6" rx="3" fill="#334155"/>
  <rect x="800" y="160" width="320" height="300" rx="12" fill="#1E1B4B" stroke="#1E3A5F" stroke-width="1"/>
  <rect x="820" y="180" width="120" height="8" rx="4" fill="#60A5FA" opacity="0.6"/>
  <rect x="820" y="200" width="280" height="6" rx="3" fill="#334155"/>
  <polyline points="820,350 880,300 940,320 1000,260 1060,280 1100,240" fill="none" stroke="#60A5FA" stroke-width="2.5" opacity="0.7"/>
  <circle cx="1000" cy="260" r="5" fill="#60A5FA"/>
  <rect x="820" y="380" width="280" height="40" rx="6" fill="#1E3A5F"/>
  <text x="600" y="530" text-anchor="middle" fill="#DBEAFE" font-family="system-ui, sans-serif" font-size="32" font-weight="700">DataPulse</text>
  <text x="600" y="560" text-anchor="middle" fill="#93C5FD" font-family="system-ui, sans-serif" font-size="14">Intelligent Analytics Platform</text>
</svg>
