<svg xmlns="http://www.w3.org/2000/svg" width="1200" height="675" viewBox="0 0 1200 675">
  <defs>
    <linearGradient id="bg" x1="0%" y1="0%" x2="100%" y2="100%">
      <stop offset="0%" style="stop-color:#1E1B4B"/>
      <stop offset="50%" style="stop-color:#312E81"/>
      <stop offset="100%" style="stop-color:#4338CA"/>
    </linearGradient>
  </defs>
  <rect width="1200" height="675" fill="url(#bg)"/>
  <circle cx="300" cy="200" r="100" fill="#818CF8" opacity="0.12"/>
  <circle cx="900" cy="450" r="80" fill="#C4B5FD" opacity="0.1"/>
  <rect x="400" y="120" width="400" height="440" rx="24" fill="#1E1B4B" stroke="#4338CA" stroke-width="1.5"/>
  <rect x="400" y="120" width="400" height="40" rx="24" fill="#312E81"/>
  <circle cx="420" y="140" r="6" fill="#F87171"/>
  <circle cx="440" y="140" r="6" fill="#FBBF24"/>
  <circle cx="460" y="140" r="6" fill="#34D399"/>
  <rect x="430" y="190" width="340" height="12" rx="6" fill="#818CF8" opacity="0.4"/>
  <rect x="430" y="220" width="280" height="8" rx="4" fill="#4338CA" opacity="0.5"/>
  <rect x="430" y="245" width="300" height="8" rx="4" fill="#4338CA" opacity="0.3"/>
  <rect x="430" y="290" width="160" height="100" rx="8" fill="#312E81"/>
  <rect x="610" y="290" width="160" height="100" rx="8" fill="#312E81"/>
  <rect x="430" y="420" width="340" height="8" rx="4" fill="#4338CA" opacity="0.3"/>
  <rect x="430" y="445" width="200" height="8" rx="4" fill="#4338CA" opacity="0.2"/>
  <text x="600" y="560" text-anchor="middle" fill="#E0E7FF" font-family="system-ui, sans-serif" font-size="28" font-weight="700">FlowNote</text>
  <text x="600" y="590" text-anchor="middle" fill="#A5B4FC" font-family="system-ui, sans-serif" font-size="14">AI-Powered Smart Notes</text>
</svg>
