<svg xmlns="http://www.w3.org/2000/svg" width="1200" height="675" viewBox="0 0 1200 675">
  <defs>
    <linearGradient id="bg" x1="0%" y1="0%" x2="100%" y2="100%">
      <stop offset="0%" style="stop-color:#111827"/>
      <stop offset="50%" style="stop-color:#1F2937"/>
      <stop offset="100%" style="stop-color:#374151"/>
    </linearGradient>
    <linearGradient id="iconGrad" x1="0%" y1="0%" x2="100%" y2="100%">
      <stop offset="0%" style="stop-color:#F59E0B"/>
      <stop offset="100%" style="stop-color:#D97706"/>
    </linearGradient>
    <filter id="shadow1" x="-20%" y="-20%" width="140%" height="140%">
      <feDropShadow dx="0" dy="8" stdDeviation="16" flood-color="#000" flood-opacity="0.5"/>
    </filter>
    <filter id="shadow2" x="-20%" y="-20%" width="140%" height="140%">
      <feDropShadow dx="0" dy="4" stdDeviation="8" flood-color="#000" flood-opacity="0.3"/>
    </filter>
  </defs>
  <rect width="1200" height="675" fill="url(#bg)"/>
  <circle cx="150" cy="120" r="120" fill="#F59E0B" opacity="0.08"/>
  <circle cx="1050" cy="550" r="150" fill="#D97706" opacity="0.06"/>

  <!-- 左侧应用图标 -->
  <g transform="translate(80, 200)">
    <rect width="140" height="140" rx="28" fill="url(#iconGrad)" filter="url(#shadow1)"/>
    <!-- 游戏控制器图标 -->
    <rect x="30" y="40" width="80" height="55" rx="20" fill="#fff" opacity="0.2"/>
    <circle cx="50" cy="60" r="6" fill="#fff" opacity="0.6"/>
    <rect x="47" y="50" width="6" height="20" rx="2" fill="#fff" opacity="0.5"/>
    <rect x="40" y="57" width="20" height="6" rx="2" fill="#fff" opacity="0.5"/>
    <circle cx="88" cy="55" r="3" fill="#fff" opacity="0.8"/>
    <circle cx="98" cy="65" r="3" fill="#fff" opacity="0.8"/>
    <circle cx="78" cy="65" r="3" fill="#fff" opacity="0.8"/>
    <circle cx="88" cy="75" r="3" fill="#fff" opacity="0.8"/>
    <text x="70" y="135" text-anchor="middle" fill="#FEF3C7" font-family="system-ui, sans-serif" font-size="11" font-weight="600">GameForge</text>
  </g>

  <!-- 中间主内容区域 -->
  <g transform="translate(280, 50)" filter="url(#shadow2)">
    <rect width="640" height="440" rx="8" fill="#111827" stroke="#374151" stroke-width="1"/>
    <!-- 标题栏 -->
    <rect width="640" height="32" rx="8" fill="#1F2937"/>
    <rect y="24" width="640" height="8" fill="#1F2937"/>
    <text x="16" y="22" fill="#F59E0B" font-family="system-ui, sans-serif" font-size="10" font-weight="600">GameForge</text>
    <text x="110" y="22" fill="#9CA3AF" font-family="system-ui, sans-serif" font-size="9">流程</text>
    <text x="150" y="22" fill="#9CA3AF" font-family="system-ui, sans-serif" font-size="9">Demo</text>
    <text x="190" y="22" fill="#9CA3AF" font-family="system-ui, sans-serif" font-size="9">资产</text>
    <text x="230" y="22" fill="#9CA3AF" font-family="system-ui, sans-serif" font-size="9">发布</text>

    <!-- 游戏开发流程 -->
    <rect x="16" y="44" width="608" height="56" rx="6" fill="#1F2937"/>
    <text x="28" y="64" fill="#FAFAFA" font-family="system-ui, sans-serif" font-size="8" font-weight="600">游戏开发流程</text>
    <rect x="28" y="72" width="70" height="20" rx="10" fill="#F59E0B" opacity="0.4"/>
    <text x="63" y="86" text-anchor="middle" fill="#F59E0B" font-family="system-ui, sans-serif" font-size="7" font-weight="600">概念</text>
    <text x="108" y="86" fill="#9CA3AF" font-family="system-ui, sans-serif" font-size="10">→</text>
    <rect x="120" y="72" width="70" height="20" rx="10" fill="#D97706" opacity="0.4"/>
    <text x="155" y="86" text-anchor="middle" fill="#D97706" font-family="system-ui, sans-serif" font-size="7" font-weight="600">原型</text>
    <text x="200" y="86" fill="#9CA3AF" font-family="system-ui, sans-serif" font-size="10">→</text>
    <rect x="212" y="72" width="70" height="20" rx="10" fill="#10B981" opacity="0.4"/>
    <text x="247" y="86" text-anchor="middle" fill="#10B981" font-family="system-ui, sans-serif" font-size="7" font-weight="600">资产</text>
    <text x="292" y="86" fill="#9CA3AF" font-family="system-ui, sans-serif" font-size="10">→</text>
    <rect x="304" y="72" width="70" height="20" rx="10" fill="#3B82F6" opacity="0.4"/>
    <text x="339" y="86" text-anchor="middle" fill="#3B82F6" font-family="system-ui, sans-serif" font-size="7" font-weight="600">关卡</text>
    <text x="384" y="86" fill="#9CA3AF" font-family="system-ui, sans-serif" font-size="10">→</text>
    <rect x="396" y="72" width="70" height="20" rx="10" fill="#EC4899" opacity="0.4"/>
    <text x="431" y="86" text-anchor="middle" fill="#EC4899" font-family="system-ui, sans-serif" font-size="7" font-weight="600">发布</text>
    <rect x="484" y="72" width="128" height="20" rx="4" fill="#111827"/>
    <text x="492" y="86" fill="#9CA3AF" font-family="system-ui, sans-serif" font-size="7">AI全流程加速</text>

    <!-- 游戏Demo画面 -->
    <rect x="16" y="112" width="380" height="216" rx="6" fill="#0F172A" stroke="#374151" stroke-width="1"/>
    <text x="28" y="132" fill="#F59E0B" font-family="system-ui, sans-serif" font-size="8" font-weight="600">游戏Demo</text>
    <!-- 游戏场景 -->
    <rect x="24" y="140" width="364" height="140" rx="4" fill="#1F2937"/>
    <!-- 地形 -->
    <rect x="24" y="240" width="364" height="40" rx="4" fill="#065F46" opacity="0.4"/>
    <!-- 角色 -->
    <rect x="80" y="200" width="20" height="40" rx="4" fill="#F59E0B" opacity="0.7"/>
    <circle cx="90" cy="195" r="10" fill="#F59E0B" opacity="0.8"/>
    <!-- 敌人 -->
    <rect x="250" y="210" width="24" height="30" rx="4" fill="#EF4444" opacity="0.6"/>
    <circle cx="262" cy="205" r="8" fill="#EF4444" opacity="0.7"/>
    <!-- 平台 -->
    <rect x="150" y="240" width="80" height="8" rx="4" fill="#6B7280" opacity="0.5"/>
    <rect x="280" y="220" width="60" height="8" rx="4" fill="#6B7280" opacity="0.5"/>
    <!-- 天空元素 -->
    <circle cx="60" cy="155" r="12" fill="#F59E0B" opacity="0.15"/>
    <circle cx="340" cy="160" r="16" fill="#3B82F6" opacity="0.1"/>
    <rect x="24" y="284" width="364" height="36" rx="4" fill="#1F2937"/>
    <text x="32" y="300" fill="#9CA3AF" font-family="system-ui, sans-serif" font-size="7">Unity 6 | AI生成关卡 | 60fps</text>
    <text x="32" y="312" fill="#10B981" font-family="system-ui, sans-serif" font-size="7">AI辅助开发效率: 8x提升</text>

    <!-- 开发效率数据 -->
    <rect x="412" y="112" width="212" height="100" rx="6" fill="#1F2937"/>
    <text x="424" y="132" fill="#FAFAFA" font-family="system-ui, sans-serif" font-size="8" font-weight="600">开发效率</text>
    <rect x="424" y="140" width="92" height="60" rx="4" fill="#111827"/>
    <text x="470" y="168" text-anchor="middle" fill="#F59E0B" font-family="system-ui, sans-serif" font-size="18" font-weight="700">2周</text>
    <text x="470" y="186" text-anchor="middle" fill="#9CA3AF" font-family="system-ui, sans-serif" font-size="6">AI辅助周期</text>
    <rect x="524" y="140" width="92" height="60" rx="4" fill="#111827"/>
    <text x="570" y="168" text-anchor="middle" fill="#EF4444" font-family="system-ui, sans-serif" font-size="18" font-weight="700">8周</text>
    <text x="570" y="186" text-anchor="middle" fill="#9CA3AF" font-family="system-ui, sans-serif" font-size="6">传统周期</text>

    <!-- AI工具对比 -->
    <rect x="412" y="222" width="212" height="106" rx="6" fill="#1F2937"/>
    <text x="424" y="242" fill="#FAFAFA" font-family="system-ui, sans-serif" font-size="8" font-weight="600">AI工具对比</text>
    <rect x="424" y="252" width="192" height="22" rx="4" fill="#111827"/>
    <rect x="424" y="252" width="160" height="22" rx="4" fill="#F59E0B" opacity="0.5"/>
    <text x="432" y="267" fill="#fff" font-family="system-ui, sans-serif" font-size="7">ChatGPT 代码</text>
    <text x="600" y="267" fill="#9CA3AF" font-family="system-ui, sans-serif" font-size="7">95%</text>
    <rect x="424" y="278" width="192" height="22" rx="4" fill="#111827"/>
    <rect x="424" y="278" width="144" height="22" rx="4" fill="#10B981" opacity="0.5"/>
    <text x="432" y="293" fill="#fff" font-family="system-ui, sans-serif" font-size="7">Midjourney 美术</text>
    <text x="600" y="293" fill="#9CA3AF" font-family="system-ui, sans-serif" font-size="7">90%</text>
    <rect x="424" y="304" width="192" height="22" rx="4" fill="#111827"/>
    <rect x="424" y="304" width="128" height="22" rx="4" fill="#3B82F6" opacity="0.5"/>
    <text x="432" y="319" fill="#fff" font-family="system-ui, sans-serif" font-size="7">AI 音效生成</text>
    <text x="600" y="319" fill="#9CA3AF" font-family="system-ui, sans-serif" font-size="7">85%</text>

    <!-- 项目数据卡片 -->
    <rect x="16" y="340" width="608" height="80" rx="6" fill="#1F2937"/>
    <text x="28" y="360" fill="#FAFAFA" font-family="system-ui, sans-serif" font-size="8" font-weight="600">项目数据</text>
    <rect x="28" y="368" width="140" height="40" rx="4" fill="#111827"/>
    <text x="98" y="388" text-anchor="middle" fill="#F59E0B" font-family="system-ui, sans-serif" font-size="14" font-weight="700">5</text>
    <text x="98" y="402" text-anchor="middle" fill="#9CA3AF" font-family="system-ui, sans-serif" font-size="6">游戏关卡</text>
    <rect x="180" y="368" width="140" height="40" rx="4" fill="#111827"/>
    <text x="250" y="388" text-anchor="middle" fill="#10B981" font-family="system-ui, sans-serif" font-size="14" font-weight="700">30+</text>
    <text x="250" y="402" text-anchor="middle" fill="#9CA3AF" font-family="system-ui, sans-serif" font-size="6">AI生成资产</text>
    <rect x="332" y="368" width="140" height="40" rx="4" fill="#111827"/>
    <text x="402" y="388" text-anchor="middle" fill="#3B82F6" font-family="system-ui, sans-serif" font-size="14" font-weight="700">1200+</text>
    <text x="402" y="402" text-anchor="middle" fill="#9CA3AF" font-family="system-ui, sans-serif" font-size="6">代码行数</text>
    <rect x="484" y="368" width="128" height="40" rx="4" fill="#111827"/>
    <text x="548" y="388" text-anchor="middle" fill="#EC4899" font-family="system-ui, sans-serif" font-size="14" font-weight="700">60fps</text>
    <text x="548" y="402" text-anchor="middle" fill="#9CA3AF" font-family="system-ui, sans-serif" font-size="6">运行帧率</text>
  </g>

  <!-- 右侧卡片 - 开发进度 -->
  <g transform="translate(960, 100)" filter="url(#shadow2)">
    <rect width="200" height="180" rx="12" fill="#1F2937" stroke="#F59E0B" stroke-width="1" opacity="0.8"/>
    <text x="16" y="32" fill="#FAFAFA" font-family="system-ui, sans-serif" font-size="10" font-weight="600">开发进度</text>
    <rect x="16" y="44" width="168" height="50" rx="6" fill="#111827" stroke="#F59E0B" stroke-width="1"/>
    <text x="24" y="62" fill="#F59E0B" font-family="system-ui, sans-serif" font-size="7">开发效率提升</text>
    <text x="24" y="78" fill="#10B981" font-family="system-ui, sans-serif" font-size="16" font-weight="700">8x</text>
    <rect x="16" y="100" width="80" height="24" rx="6" fill="url(#iconGrad)"/>
    <text x="56" y="116" text-anchor="middle" fill="#fff" font-family="system-ui, sans-serif" font-size="8" font-weight="600">运行</text>
    <rect x="104" y="100" width="80" height="24" rx="6" fill="#374151"/>
    <text x="144" y="116" text-anchor="middle" fill="#9CA3AF" font-family="system-ui, sans-serif" font-size="8">导出</text>
    <rect x="16" y="132" width="168" height="36" rx="6" fill="#111827"/>
    <text x="24" y="148" fill="#D97706" font-family="system-ui, sans-serif" font-size="7" font-weight="600">游戏工作流</text>
    <text x="24" y="160" fill="#9CA3AF" font-family="system-ui, sans-serif" font-size="6">从概念到可玩Demo 2周</text>
  </g>

  <!-- 右侧卡片 - 技术栈 -->
  <g transform="translate(960, 310)" filter="url(#shadow2)">
    <rect width="200" height="120" rx="12" fill="#1F2937" stroke="#D97706" stroke-width="1" opacity="0.8"/>
    <text x="16" y="32" fill="#FAFAFA" font-family="system-ui, sans-serif" font-size="10" font-weight="600">技术栈</text>
    <rect x="16" y="44" width="76" height="60" rx="6" fill="#111827"/>
    <text x="54" y="70" text-anchor="middle" fill="#F59E0B" font-family="system-ui, sans-serif" font-size="14" font-weight="700">Unity</text>
    <text x="54" y="88" text-anchor="middle" fill="#9CA3AF" font-family="system-ui, sans-serif" font-size="6">引擎</text>
    <rect x="100" y="44" width="76" height="60" rx="6" fill="#111827"/>
    <text x="138" y="70" text-anchor="middle" fill="#10B981" font-family="system-ui, sans-serif" font-size="14" font-weight="700">C#</text>
    <text x="138" y="88" text-anchor="middle" fill="#9CA3AF" font-family="system-ui, sans-serif" font-size="6">语言</text>
  </g>

  <!-- 底部标题 -->
  <text x="600" y="580" text-anchor="middle" fill="#FAFAFA" font-family="system-ui, sans-serif" font-size="32" font-weight="700">GameForge</text>
  <text x="600" y="610" text-anchor="middle" fill="#9CA3AF" font-family="system-ui, sans-serif" font-size="14">AI赋能游戏开发全流程的实践探索</text>
</svg>
