<svg xmlns="http://www.w3.org/2000/svg" width="1200" height="675" viewBox="0 0 1200 675">
  <defs>
    <linearGradient id="bg" x1="0%" y1="0%" x2="100%" y2="100%">
      <stop offset="0%" style="stop-color:#064E3B"/>
      <stop offset="50%" style="stop-color:#065F46"/>
      <stop offset="100%" style="stop-color:#047857"/>
    </linearGradient>
  </defs>
  <rect width="1200" height="675" fill="url(#bg)"/>
  <circle cx="250" cy="180" r="90" fill="#34D399" opacity="0.12"/>
  <circle cx="950" cy="480" r="110" fill="#6EE7B7" opacity="0.08"/>
  <rect x="80" y="200" width="280" height="300" rx="20" fill="#064E3B" stroke="#065F46" stroke-width="1.5"/>
  <rect x="100" y="230" width="60" height="60" rx="12" fill="#10B981" opacity="0.3"/>
  <rect x="100" y="310" width="180" height="10" rx="5" fill="#34D399" opacity="0.5"/>
  <rect x="100" y="335" width="140" height="8" rx="4" fill="#065F46"/>
  <rect x="100" y="370" width="100" height="80" rx="8" fill="#065F46"/>
  <rect x="220" y="370" width="100" height="80" rx="8" fill="#065F46"/>
  <rect x="100" y="470" width="220" height="30" rx="8" fill="#10B981" opacity="0.2"/>
  <rect x="840" y="180" width="280" height="320" rx="20" fill="#064E3B" stroke="#065F46" stroke-width="1.5"/>
  <rect x="860" y="210" width="240" height="140" rx="8" fill="#065F46"/>
  <rect x="860" y="370" width="120" height="12" rx="6" fill="#34D399" opacity="0.4"/>
  <rect x="860" y="400" width="180" height="8" rx="4" fill="#065F46"/>
  <rect x="860" y="430" width="100" height="40" rx="8" fill="#10B981" opacity="0.2"/>
  <text x="600" y="580" text-anchor="middle" fill="#D1FAE5" font-family="system-ui, sans-serif" font-size="32" font-weight="700">GlowFit</text>
  <text x="600" y="610" text-anchor="middle" fill="#6EE7B7" font-family="system-ui, sans-serif" font-size="14">Health & Fitness Tracker</text>
</svg>
