<svg xmlns="http://www.w3.org/2000/svg" width="1200" height="675" viewBox="0 0 1200 675">
  <defs>
    <linearGradient id="bg" x1="0%" y1="0%" x2="100%" y2="100%">
      <stop offset="0%" style="stop-color:#0F172A"/>
      <stop offset="50%" style="stop-color:#1E293B"/>
      <stop offset="100%" style="stop-color:#334155"/>
    </linearGradient>
  </defs>
  <rect width="1200" height="675" fill="url(#bg)"/>
  <circle cx="200" cy="150" r="80" fill="#8B5CF6" opacity="0.15"/>
  <circle cx="1000" cy="500" r="120" fill="#F59E0B" opacity="0.1"/>
  <rect x="80" y="200" width="300" height="180" rx="12" fill="#1E293B" stroke="#334155" stroke-width="1"/>
  <rect x="95" y="220" width="120" height="8" rx="4" fill="#8B5CF6" opacity="0.6"/>
  <rect x="95" y="240" width="200" height="6" rx="3" fill="#475569"/>
  <rect x="95" y="260" width="160" height="6" rx="3" fill="#475569"/>
  <rect x="95" y="290" width="80" height="70" rx="8" fill="#8B5CF6" opacity="0.2"/>
  <rect x="190" y="290" width="80" height="70" rx="8" fill="#F59E0B" opacity="0.2"/>
  <rect x="820" y="180" width="300" height="200" rx="12" fill="#1E293B" stroke="#334155" stroke-width="1"/>
  <rect x="835" y="200" width="100" height="8" rx="4" fill="#F59E0B" opacity="0.6"/>
  <rect x="835" y="220" width="250" height="6" rx="3" fill="#475569"/>
  <circle cx="985" cy="320" r="40" fill="#F59E0B" opacity="0.15"/>
  <text x="600" y="380" text-anchor="middle" fill="#E2E8F0" font-family="system-ui, sans-serif" font-size="36" font-weight="700">PixelForge</text>
  <text x="600" y="415" text-anchor="middle" fill="#94A3B8" font-family="system-ui, sans-serif" font-size="16">Creative AI Asset Platform</text>
</svg>
